<?xml version="1.0" standalone="no"?>
<!DOCTYPE svg PUBLIC "-//W3C//DTD SVG 20010904//EN"
 "http://www.w3.org/TR/2001/REC-SVG-20010904/DTD/svg10.dtd">
<svg version="1.0" xmlns="http://www.w3.org/2000/svg"
 width="500.000000pt" height="500.000000pt" viewBox="0 0 500.000000 500.000000"
 preserveAspectRatio="xMidYMid meet">

<g transform="translate(0.000000,500.000000) scale(0.100000,-0.100000)"
fill="#000000" stroke="none">
<path d="M2160 4354 c-88 -8 -206 -28 -215 -35 -5 -5 -18 -9 -29 -9 -21 0
-102 -23 -186 -52 -30 -11 -64 -22 -75 -25 -11 -3 -34 -16 -52 -29 -17 -13
-36 -24 -41 -24 -6 0 -12 -4 -14 -8 -4 -12 -146 -112 -158 -112 -6 0 -10 -4
-10 -9 0 -5 -10 -13 -22 -17 -13 -4 -25 -9 -28 -13 -3 -3 -31 -19 -62 -34 -53
-27 -114 -84 -198 -184 -61 -73 -105 -125 -115 -137 -19 -20 -91 -140 -112
-186 -86 -188 -143 -363 -154 -475 -5 -44 -16 -127 -25 -185 -29 -179 -19
-628 16 -705 5 -11 11 -33 13 -50 7 -38 46 -175 57 -196 5 -9 12 -33 15 -53 4
-20 11 -39 16 -42 5 -3 9 -16 9 -29 0 -13 4 -26 9 -29 5 -3 12 -17 15 -32 19
-72 126 -267 183 -331 10 -12 28 -34 39 -49 10 -15 31 -41 45 -58 14 -17 30
-38 35 -47 28 -50 199 -220 311 -309 62 -50 180 -120 233 -139 36 -13 74 -27
85 -31 11 -4 65 -15 120 -24 55 -9 123 -21 150 -26 188 -35 261 -42 338 -31
106 15 140 21 162 31 11 4 45 16 75 25 30 10 63 21 72 26 10 5 23 9 30 9 19 0
321 154 366 187 22 15 65 48 97 72 l58 44 97 -13 c76 -9 131 -9 246 0 82 6
160 15 174 20 14 4 68 11 120 14 113 7 261 24 310 36 92 22 167 43 190 53 116
53 246 162 257 218 3 16 10 32 14 35 12 7 11 121 -1 129 -5 3 -10 13 -10 22 0
30 -53 98 -104 134 -28 19 -122 71 -208 114 -87 43 -158 82 -158 86 0 5 -6 9
-12 9 -13 0 -74 51 -167 137 -39 37 -150 100 -202 116 -22 7 -28 70 -34 402
-6 275 -20 400 -65 595 -5 19 -16 71 -25 115 -19 89 -65 245 -77 260 -4 5 -8
14 -8 21 0 6 -25 54 -55 107 -110 188 -431 476 -615 551 -25 10 -53 22 -62 27
-10 5 -26 9 -35 9 -10 0 -27 7 -37 15 -11 8 -28 15 -38 15 -10 0 -18 3 -18 8
0 13 -145 47 -329 77 -90 14 -123 16 -201 9z m180 -305 c25 -5 68 -13 95 -19
101 -18 144 -29 187 -48 23 -11 75 -32 113 -48 65 -26 99 -45 165 -91 84 -59
320 -300 347 -354 28 -57 50 -109 56 -134 3 -11 13 -45 22 -75 9 -30 21 -75
26 -100 4 -25 13 -67 19 -95 22 -107 42 -235 51 -335 15 -169 16 -743 2 -830
-7 -41 -17 -101 -22 -132 -15 -92 -121 -271 -225 -378 -95 -97 -188 -181 -245
-220 -29 -19 -58 -41 -66 -47 -7 -7 -18 -13 -23 -13 -6 0 -12 -4 -14 -8 -1 -4
-28 -18 -58 -31 -30 -13 -75 -35 -100 -50 -25 -15 -74 -35 -110 -45 -36 -10
-73 -22 -82 -27 -10 -5 -26 -9 -36 -9 -10 0 -23 -5 -29 -11 -6 -6 -46 -13 -89
-16 -73 -4 -121 1 -244 28 -25 5 -79 13 -120 19 -41 5 -95 14 -120 21 -49 12
-147 57 -168 77 -8 6 -23 17 -34 23 -76 41 -311 287 -389 409 -9 14 -26 35
-38 48 -25 26 -122 216 -141 277 -7 22 -16 49 -20 60 -4 11 -16 49 -25 85 -9
36 -21 74 -25 85 -20 53 -31 99 -41 161 -16 98 -23 458 -10 519 6 28 15 77 20
110 13 81 21 116 31 140 4 11 16 49 26 85 25 92 92 227 136 274 26 28 49 85
47 116 -2 46 -11 33 128 188 35 39 76 75 89 78 13 3 24 9 24 13 0 4 12 12 28
18 40 18 91 49 116 71 11 10 37 28 56 40 32 19 51 33 97 72 7 5 18 10 26 10 7
0 17 4 22 8 9 8 80 29 178 53 20 5 54 13 75 19 74 20 222 24 292 9z m1460
-2276 c25 -23 66 -57 90 -75 25 -18 47 -35 50 -39 10 -13 138 -86 231 -132
127 -62 132 -68 76 -101 -24 -14 -56 -26 -71 -26 -14 0 -34 -4 -44 -9 -25 -14
-140 -31 -277 -42 -66 -5 -147 -13 -180 -18 -167 -25 -175 -25 -175 -4 0 11 8
27 18 36 10 9 33 47 52 84 19 37 38 70 41 73 3 3 14 26 25 52 10 27 22 48 27
48 4 0 7 8 7 19 0 10 7 35 15 54 8 20 15 54 15 75 0 73 28 74 100 5z"/>
<path d="M2566 3605 c-44 -23 -73 -63 -79 -109 -10 -68 5 -108 104 -291 12
-22 29 -53 37 -70 36 -73 130 -202 191 -264 92 -93 105 -101 174 -101 56 0 62
3 98 39 37 36 39 42 39 99 0 59 0 60 -58 118 -55 56 -142 166 -142 180 0 3 -8
18 -19 32 -35 50 -131 242 -131 263 0 11 -22 42 -50 69 -44 45 -54 50 -92 50
-24 0 -56 -7 -72 -15z"/>
<path d="M2018 3545 c-61 -42 -83 -107 -100 -305 -10 -125 -4 -383 10 -421 5
-13 18 -50 28 -82 41 -132 163 -209 254 -162 90 47 108 164 37 242 -28 31 -41
109 -41 248 0 141 9 230 31 301 25 81 5 138 -67 187 -37 26 -108 22 -152 -8z"/>
<path d="M1485 3501 c-22 -10 -49 -27 -60 -38 -31 -30 -123 -221 -167 -347
-36 -101 -48 -140 -80 -246 -21 -72 -32 -209 -19 -250 17 -58 68 -90 143 -90
49 0 62 4 92 30 32 29 38 44 52 130 2 14 7 41 10 60 3 19 9 49 14 65 18 64 42
141 50 160 5 11 21 54 36 95 15 41 33 86 41 100 7 14 13 28 13 31 0 4 16 33
35 65 61 101 41 185 -55 234 -48 24 -55 24 -105 1z"/>
<path d="M2535 2367 c-40 -25 -93 -90 -99 -122 -18 -96 56 -185 153 -185 79 0
151 85 151 178 0 45 -38 105 -80 127 -34 18 -97 19 -125 2z"/>
<path d="M1620 2270 c-48 -25 -84 -67 -104 -121 -15 -41 -15 -50 -2 -87 15
-43 56 -91 93 -111 34 -18 101 -13 133 9 34 24 82 100 100 156 12 39 11 45
-14 91 -15 27 -40 57 -56 66 -37 22 -106 21 -150 -3z"/>
<path d="M2468 1673 c-15 -2 -57 -34 -101 -76 -89 -87 -102 -97 -121 -97 -25
0 -140 53 -166 77 -14 13 -31 23 -38 23 -7 0 -21 5 -31 11 -25 16 -104 -15
-136 -53 -45 -53 -43 -140 5 -201 27 -35 200 -121 283 -142 68 -17 95 -16 174
4 68 18 127 59 250 176 69 65 74 73 79 120 12 112 -73 180 -198 158z"/>
</g>
</svg>
